{"title":"War.Inc.[2008].DvdRip.XviD-KnÃƒÂ£","uid":6665629,"size":1570369536,"categoryP":"video","categoryS":"movies","magnet":"?xt=urn:btih:5c7efe015f94f83b43a06efb0b178b40283cbb0e&amp;dn=War.Inc.%5B2008%5D.DvdRip.XviD-Kn%C3%83%C2%A3&amp;tr=udp%3A%2F%2Ftracker.openbittorrent.com%3A80&amp;tr=udp%3A%2F%2Fopen.demonii.com%3A1337&amp;tr=udp%3A%2F%2Ftracker.coppersurfer.tk%3A6969&amp;tr=udp%3A%2F%2Fexodus.desync.com%3A6969","seeders":0,"leechers":0,"uploader":"Jon.Pson","files":-1,"time":1315668508,"description":"A political satire set in Turaqistan, a country occupied by an American private corporation run by a former US Vice-President. In an effort to monopolize the opportunities the war-torn nation offers, the corporation's CEO hires a troubled hit man, to kill a Middle East oil minister. Now, struggling with his own growing demons, the assassin must pose as the corporation's Trade Show Producer in order to pull off this latest hit, while maintaining his cover by organizing the high-profile wedding of Yonica Babyyeah an outrageous Middle Eastern pop star, and keeping a sexy left wing reporter in check.\n\n\n\nGeneral\nComplete name                    : Y:\\War.Inc.[2008].DvdRip.XviD-KnÃƒÂ£\\War.Inc.[2008].DvdRip.XviD-KnÃƒÂ£.avi\nFormat                           : AVI\nFormat/Info                      : Audio Video Interleave\nFile size                        : 1.46 GiB\nDuration                         : 1h 42mn\nOverall bit rate                 : 2 046 Kbps\nWriting application              : VirtualDubMod 1.5.4.1 (build 2178/release)\nWriting library                  : VirtualDubMod build 2178/release\n\nVideo\nID                               : 0\nFormat                           : MPEG-4 Visual\nFormat profile                   : Advanced Simple@L5\nFormat settings, BVOP            : No\nFormat settings, QPel            : No\nFormat settings, GMC             : No warppoints\nFormat settings, Matrix          : Custom\nCodec ID                         : XVID\nCodec ID/Hint                    : XviD\nDuration                         : 1h 42mn\nBit rate                         : 1 591 Kbps\nWidth                            : 720 pixels\nHeight                           : 304 pixels\nDisplay aspect ratio             : 2.35:1\nFrame rate                       : 25.000 fps\nColor space                      : YUV\nChroma subsampling               : 4:2:0\nBit depth                        : 8 bits\nScan type                        : Progressive\nCompression mode                 : Lossy\nBits/(Pixel*Frame)               : 0.291\nStream size                      : 1.14 GiB (78%)\nWriting library                  : XviD 1.2.1 (UTC 2008-12-04)\n\nAudio\nID                               : 1\nFormat                           : AC-3\nFormat/Info                      : Audio Coding 3\nMode extension                   : CM (complete main)\nCodec ID                         : 2000\nDuration                         : 1h 42mn\nBit rate mode                    : Constant\nBit rate                         : 448 Kbps\nChannel(s)                       : 6 channels\nChannel positions                : Front: L C R, Side: L R, LFE\nSampling rate                    : 48.0 KHz\nBit depth                        : 16 bits\nCompression mode                 : Lossy\nStream size                      : 328 MiB (22%)\nAlignment                        : Split accross interleaves\nInterleave, duration             : 96 ms (2.40 video frames)\nInterleave, preload duration     : 96 ms\nLanguage                         : English\n\n","torrent":{"xt":"urn:btih:5c7efe015f94f83b43a06efb0b178b40283cbb0e","amp;dn":"War.Inc.%5B2008%5D.DvdRip.XviD-Kn%C3%83%C2%A3","amp;tr":["udp%3A%2F%2Ftracker.openbittorrent.com%3A80","udp%3A%2F%2Fopen.demonii.com%3A1337","udp%3A%2F%2Ftracker.coppersurfer.tk%3A6969","udp%3A%2F%2Fexodus.desync.com%3A6969"],"infoHash":"5c7efe015f94f83b43a06efb0b178b40283cbb0e","infoHashBuffer":{"type":"Buffer","data":[92,126,254,1,95,148,248,59,67,160,110,251,11,23,139,64,40,60,187,14]},"announce":[],"urlList":[]}}